<?xml version="1.0" encoding="utf-8"?>
<!-- Generator: Adobe Illustrator 15.0.0, SVG Export Plug-In . SVG Version: 6.00 Build 0)  -->
<!DOCTYPE svg PUBLIC "-//W3C//DTD SVG 1.1//EN" "http://www.w3.org/Graphics/SVG/1.1/DTD/svg11.dtd">
<svg version="1.1" id="Calque_1" xmlns="http://www.w3.org/2000/svg" xmlns:xlink="http://www.w3.org/1999/xlink" x="0px" y="0px"
	 width="384.785px" height="461.905px" viewBox="0 0 384.785 461.905" enable-background="new 0 0 384.785 461.905"
	 xml:space="preserve">
<g>
	<g>
		<g>
			<linearGradient id="SVGID_1_" gradientUnits="userSpaceOnUse" x1="192.3931" y1="384.7871" x2="192.3931" y2="4.882813e-004">
				<stop  offset="0" style="stop-color:#33B1E5"/>
				<stop  offset="1" style="stop-color:#179DD9"/>
			</linearGradient>
			<path fill="url(#SVGID_1_)" d="M384.785,346.307c0,21.254-17.227,38.48-38.479,38.48H38.479C17.227,384.787,0,367.561,0,346.307
				V38.479C0,17.227,17.227,0,38.479,0h307.828c21.252,0,38.479,17.227,38.479,38.479V346.307z"/>
			<g>
				<linearGradient id="SVGID_2_" gradientUnits="userSpaceOnUse" x1="290.2354" y1="174.5933" x2="2.6736" y2="81.7134">
					<stop  offset="0" style="stop-color:#BCBEC0"/>
					<stop  offset="1" style="stop-color:#FFFFFF"/>
				</linearGradient>
				<polygon fill="url(#SVGID_2_)" points="23.059,89.74 216.77,82.239 325.248,177.955 224.928,222.125 				"/>
				<linearGradient id="SVGID_3_" gradientUnits="userSpaceOnUse" x1="239.4258" y1="208.1855" x2="189.7294" y2="130.3195">
					<stop  offset="0" style="stop-color:#DCDDDE"/>
					<stop  offset="0.0526" style="stop-color:#DFE0E1"/>
					<stop  offset="0.3568" style="stop-color:#EFF0F0"/>
					<stop  offset="0.6692" style="stop-color:#F9FAFA"/>
					<stop  offset="1" style="stop-color:#FFFFFF"/>
				</linearGradient>
				<polygon fill="url(#SVGID_3_)" points="303.896,71.189 235.441,84.665 124.609,266.297 325.248,177.955 				"/>
				<linearGradient id="SVGID_4_" gradientUnits="userSpaceOnUse" x1="309.8301" y1="88.6484" x2="360.6387" y2="86.0864">
					<stop  offset="0" style="stop-color:#D1D3D4"/>
					<stop  offset="1" style="stop-color:#FFFFFF"/>
				</linearGradient>
				<polygon fill="url(#SVGID_4_)" points="361.727,95.657 310.928,106.351 303.896,71.189 				"/>
				<linearGradient id="SVGID_5_" gradientUnits="userSpaceOnUse" x1="154.1675" y1="267.5654" x2="163.1605" y2="334.8921">
					<stop  offset="0" style="stop-color:#C7C8CA"/>
					<stop  offset="1" style="stop-color:#FFFFFF"/>
				</linearGradient>
				<polygon fill="url(#SVGID_5_)" points="114.057,343.382 199.813,233.185 124.609,266.297 				"/>
				<linearGradient id="SVGID_6_" gradientUnits="userSpaceOnUse" x1="187.3135" y1="89.4937" x2="198.3737" y2="230.484">
					<stop  offset="0" style="stop-color:#D1D3D4"/>
					<stop  offset="0.1533" style="stop-color:#DDDEDF"/>
					<stop  offset="0.4391" style="stop-color:#EEEFEF"/>
					<stop  offset="0.7229" style="stop-color:#F9F9F9"/>
					<stop  offset="1" style="stop-color:#FFFFFF"/>
				</linearGradient>
				<polygon fill="url(#SVGID_6_)" points="54.115,61.404 243.842,76.084 325.248,177.955 237.021,216.8 				"/>
			</g>
		</g>
	</g>
	<g>
		<path fill="#00AEEF" d="M19.086,408.384H56.6v2.9H22.416v20.564h32.299v2.896H22.416v25.352h-3.33V408.384z"/>
		<path fill="#00AEEF" d="M62.029,408.384h3.334v48.811h33.893v2.902H62.029V408.384z"/>
		<path fill="#00AEEF" d="M88.465,408.384h4.637l21.002,26.869l21.439-26.869h4.197l-23.971,29.982v21.73h-3.336v-21.73
			L88.465,408.384z"/>
		<path fill="#00AEEF" d="M142.641,408.384h3.334v51.713h-3.334V408.384z"/>
		<path fill="#00AEEF" d="M154.662,408.384h4.199l38.598,47.076h0.152v-47.076h3.326v51.713h-4.197l-38.602-47.076h-0.146v47.076
			h-3.33V408.384z"/>
		<path fill="#00AEEF" d="M237.152,434.306h24.113v25.791h-2.895v-12.748h-0.141c-3.916,9.268-12.674,13.904-22.602,13.904
			c-15.713,0-27.521-9.923-27.521-27.012c0-12.53,8.545-27.018,27.521-27.018c12.676,0,22.02,6.23,24.553,17.385h-3.33
			c-2.174-9.561-10.865-14.488-21.223-14.488c-14.77,0-24.188,11.084-24.188,24.121c0,12.959,8.324,24.113,24.188,24.113
			c13.035,0,21.512-8.035,22.307-21.146h-20.783V434.306z"/>
		<path fill="#00AEEF" d="M286.037,408.384h27.885c9.922,0,15.063,4.637,15.063,12.748c0,5.066-2.318,10.21-10.139,11.877v0.146
			c10.061,1.016,11.873,8.327,11.873,12.741c0,5.579-3.039,14.2-17.307,14.2h-27.375V408.384z M289.369,431.849h23.029
			c2.682,0,13.256,0,13.256-10.501c0-10.063-8.256-10.063-13.764-10.063h-22.521V431.849z M289.369,457.194h23.318
			c2.607,0,14.699,0,14.699-11.585c0-10.864-9.846-10.864-15.566-10.864h-22.451V457.194z"/>
		<path fill="#00AEEF" d="M338.328,408.384h3.334v7.678h-3.334V408.384z M338.328,423.012h3.334v37.085h-3.334V423.012z"/>
		<path fill="#00AEEF" d="M350.35,408.384h3.328v51.713h-3.328V408.384z"/>
		<path fill="#00AEEF" d="M362.373,408.384h3.326v51.713h-3.326V408.384z"/>
	</g>
</g>
</svg>
