<?xml version="1.0" encoding="utf-8"?>
<!-- Generator: Adobe Illustrator 15.0.0, SVG Export Plug-In . SVG Version: 6.00 Build 0)  -->
<!DOCTYPE svg PUBLIC "-//W3C//DTD SVG 1.1//EN" "http://www.w3.org/Graphics/SVG/1.1/DTD/svg11.dtd">
<svg version="1.1" id="Calque_1" xmlns="http://www.w3.org/2000/svg" xmlns:xlink="http://www.w3.org/1999/xlink" x="0px" y="0px"
	 width="346.613px" height="54.029px" viewBox="0 0 346.613 54.029" enable-background="new 0 0 346.613 54.029"
	 xml:space="preserve">
<g>
	<path fill="#FFFFFF" d="M0,1.16h37.514v2.9H3.33v20.565h32.299v2.897H3.33v25.352H0V1.16z"/>
	<path fill="#FFFFFF" d="M42.943,1.16h3.334v48.81H80.17v2.903H42.943V1.16z"/>
	<path fill="#FFFFFF" d="M69.379,1.16h4.637l21.002,26.869L116.457,1.16h4.197L96.684,31.142v21.731h-3.336V31.142L69.379,1.16z"/>
	<path fill="#FFFFFF" d="M123.555,1.16h3.334v51.713h-3.334V1.16z"/>
	<path fill="#FFFFFF" d="M135.576,1.16h4.199l38.598,47.077h0.152V1.16h3.326v51.713h-4.197L139.053,5.796h-0.146v47.077h-3.33V1.16
		z"/>
	<path fill="#FFFFFF" d="M218.066,27.082h24.113v25.791h-2.895V40.125h-0.141c-3.916,9.268-12.674,13.904-22.602,13.904
		c-15.713,0-27.521-9.924-27.521-27.012C189.021,14.487,197.566,0,216.543,0c12.676,0,22.02,6.23,24.553,17.384h-3.33
		C235.592,7.823,226.9,2.896,216.543,2.896c-14.77,0-24.188,11.083-24.188,24.121c0,12.959,8.324,24.112,24.188,24.112
		c13.035,0,21.512-8.034,22.307-21.146h-20.783V27.082z"/>
	<path fill="#FFFFFF" d="M266.951,1.16h27.885c9.922,0,15.063,4.636,15.063,12.748c0,5.067-2.318,10.21-10.139,11.877v0.146
		c10.061,1.017,11.873,8.327,11.873,12.741c0,5.58-3.039,14.201-17.307,14.201h-27.375V1.16z M270.283,24.625h23.029
		c2.682,0,13.256,0,13.256-10.501c0-10.064-8.256-10.064-13.764-10.064h-22.521V24.625z M270.283,49.97h23.318
		c2.607,0,14.699,0,14.699-11.585c0-10.863-9.846-10.863-15.566-10.863h-22.451V49.97z"/>
	<path fill="#FFFFFF" d="M319.242,1.16h3.334v7.677h-3.334V1.16z M319.242,15.788h3.334v37.085h-3.334V15.788z"/>
	<path fill="#FFFFFF" d="M331.264,1.16h3.328v51.713h-3.328V1.16z"/>
	<path fill="#FFFFFF" d="M343.287,1.16h3.326v51.713h-3.326V1.16z"/>
</g>
</svg>
